<?xml version="1.0" standalone="no"?>
<!DOCTYPE svg PUBLIC "-//W3C//DTD SVG 20010904//EN"
 "http://www.w3.org/TR/2001/REC-SVG-20010904/DTD/svg10.dtd">
<svg version="1.0" xmlns="http://www.w3.org/2000/svg"
 width="359.000000pt" height="241.000000pt" viewBox="0 0 359.000000 241.000000"
 preserveAspectRatio="xMidYMid meet">

<g transform="translate(0.000000,241.000000) scale(0.100000,-0.100000)"
fill="#000000" stroke="none">
<path d="M1849 2369 l-24 -19 28 0 c15 0 27 -4 27 -10 0 -5 5 -10 11 -10 5 0
8 4 5 9 -3 5 4 11 17 15 25 7 57 -24 57 -55 0 -11 -7 -19 -17 -19 -15 0 -16
-2 -3 -10 12 -8 11 -10 -7 -10 -15 0 -20 5 -17 18 4 14 -3 18 -38 20 -25 2
-59 13 -80 27 -21 14 -48 25 -60 24 -22 0 -22 -1 -3 -9 19 -8 19 -8 -4 -17
-16 -7 -25 -19 -27 -40 -3 -27 -1 -30 21 -25 14 2 22 8 19 13 -3 5 0 9 6 9 6
0 10 -10 9 -22 -2 -13 0 -29 4 -36 5 -7 1 -19 -8 -29 -10 -9 -15 -26 -12 -40
5 -29 -28 -33 -36 -4 -3 13 -19 24 -46 31 -22 6 -41 16 -41 22 0 6 9 8 21 5
18 -5 20 -2 16 21 -3 15 0 36 6 47 9 18 9 19 -8 5 -14 -11 -19 -12 -22 -2 -8
23 -22 12 -25 -20 -3 -28 -5 -30 -13 -14 -6 13 -3 29 8 48 14 25 7 42 -8 18
-3 -5 -13 -6 -22 -3 -14 5 -15 1 -10 -30 4 -26 2 -39 -8 -44 -7 -5 -13 -17
-12 -28 1 -14 -5 -21 -21 -23 -15 -2 -22 -10 -21 -20 3 -21 -10 -52 -22 -52
-4 0 -5 7 -2 17 4 11 3 14 -5 9 -7 -4 -12 -13 -12 -21 0 -17 -37 -54 -67 -65
-19 -8 -21 -15 -18 -82 l3 -73 36 -15 c20 -8 36 -20 36 -26 0 -6 -18 -27 -40
-48 -22 -20 -40 -43 -40 -50 0 -8 -15 -23 -33 -34 -25 -14 -33 -26 -33 -47 1
-15 -5 -30 -11 -32 -8 -3 -13 4 -13 19 0 13 -5 30 -11 38 -8 11 -9 7 -5 -18 4
-25 2 -34 -12 -38 -25 -8 -61 -26 -39 -19 13 3 17 0 15 -12 -2 -12 5 -19 22
-23 20 -4 25 -11 24 -35 0 -18 9 -42 23 -59 28 -34 24 -80 -9 -108 -31 -27 -7
-21 26 6 16 13 26 29 22 34 -10 16 5 64 18 59 6 -3 10 -10 8 -17 -1 -7 2 -18
8 -25 7 -9 6 -16 -5 -25 -8 -7 -15 -18 -15 -25 0 -8 -11 -22 -25 -33 -14 -11
-25 -25 -25 -31 0 -16 10 -14 32 6 19 17 26 5 7 -14 -9 -9 -5 -14 15 -19 16
-4 26 -13 26 -25 0 -17 -2 -17 -37 4 -42 24 -73 32 -73 17 0 -6 9 -10 21 -10
11 0 29 -5 40 -11 19 -10 19 -11 -3 -30 -16 -13 -18 -17 -5 -13 14 5 17 0 17
-30 0 -40 -6 -44 -27 -18 -13 16 -14 16 -11 -3 2 -13 12 -21 28 -23 14 -2 35
-13 47 -24 15 -14 30 -19 48 -15 15 2 39 -2 55 -9 20 -11 64 -14 168 -12 77 2
143 0 147 -3 3 -4 9 -31 12 -61 l5 -54 -47 -37 c-48 -37 -49 -37 -149 -38
-100 -2 -101 -2 -37 -10 69 -9 76 -12 66 -28 -10 -18 -215 -9 -215 9 0 4 19
12 43 18 l42 10 -55 -4 c-84 -8 -108 -14 -90 -24 20 -11 148 -30 199 -30 53 0
54 -18 4 -59 -34 -28 -35 -31 -15 -31 30 0 69 21 121 64 53 44 40 47 -17 5
-29 -21 -42 -26 -42 -16 0 31 42 66 120 97 82 33 100 50 100 92 0 13 6 33 14
44 10 13 13 34 9 67 -4 32 -2 47 6 47 6 0 11 -6 11 -14 0 -7 13 -40 30 -72 16
-32 34 -77 39 -99 8 -28 21 -47 46 -64 32 -21 41 -23 108 -16 69 6 77 5 112
-19 21 -14 43 -26 49 -27 6 0 2 -4 -8 -8 -10 -4 -42 -1 -70 6 -79 20 -85 16
-37 -28 24 -21 42 -42 38 -45 -3 -3 -31 8 -63 24 -33 16 -77 35 -99 42 -22 7
-57 21 -77 31 -28 15 -46 17 -75 11 l-38 -8 43 -7 c24 -4 61 -16 83 -27 21
-11 51 -20 66 -20 42 -1 103 -33 150 -79 33 -32 50 -41 76 -41 18 0 37 -3 41
-7 6 -7 -84 -38 -145 -50 -35 -6 -75 20 -88 58 -7 20 -15 27 -25 23 -17 -7
-81 29 -95 53 -5 9 -23 17 -42 18 -19 1 -41 5 -50 9 -11 5 -19 1 -23 -10 -5
-13 -4 -14 7 -6 8 7 18 7 27 2 8 -6 26 -10 40 -10 25 -1 209 -143 218 -167 6
-20 -29 -15 -68 8 -19 12 -51 30 -70 41 -31 18 -32 18 -14 1 12 -10 38 -31 58
-47 20 -15 36 -32 36 -37 0 -18 -46 -8 -85 17 l-40 26 40 -35 c52 -46 37 -60
-26 -24 -39 21 -58 26 -84 21 -27 -5 -35 -2 -44 14 -6 12 -25 22 -51 26 -23 3
-49 10 -58 15 -47 24 -128 36 -245 37 -70 1 -124 -2 -120 -7 4 -4 67 -9 140
-11 121 -3 133 -5 156 -26 20 -19 25 -21 30 -8 7 18 37 10 37 -9 0 -8 -8 -16
-17 -18 -12 -3 -9 -5 8 -6 15 0 32 -7 38 -15 17 -20 61 -27 61 -10 0 16 26 19
35 4 4 -6 1 -17 -5 -25 -10 -12 -9 -15 6 -15 9 0 31 -5 49 -11 23 -9 45 -8 88
1 31 6 57 14 57 18 0 4 25 18 55 32 30 14 57 32 60 41 8 24 44 36 137 49 81
11 112 20 71 20 -12 0 -23 7 -27 15 -3 9 -18 15 -34 15 -22 0 -37 9 -57 35
-14 20 -36 44 -48 55 -27 26 -20 31 28 20 22 -5 54 -10 72 -10 19 0 50 -12 76
-30 29 -20 57 -30 78 -29 l34 1 -33 9 c-19 6 -37 20 -44 34 -7 15 -23 27 -45
32 -47 11 -43 25 14 41 26 7 53 18 58 24 7 8 4 8 -10 3 -11 -5 -55 -10 -98
-13 -62 -3 -83 -1 -104 13 -21 14 -38 16 -92 11 -39 -4 -79 -2 -97 4 -41 14
-67 62 -62 115 3 37 5 40 39 46 40 6 102 46 94 60 -4 5 1 9 9 9 9 0 22 11 31
24 15 22 17 23 59 9 39 -13 53 -13 123 1 67 14 82 21 111 52 37 41 38 50 15
76 -15 17 -15 20 12 48 24 25 26 31 14 46 -11 14 -11 17 4 26 12 6 16 16 11
30 -4 14 2 28 21 48 16 17 25 35 22 44 -3 8 -1 17 6 19 8 3 6 12 -8 27 -17 20
-18 23 -2 17 36 -13 12 61 -27 82 -23 13 -26 21 -26 67 0 45 -3 52 -22 57 -13
4 -29 0 -38 -8 -12 -11 -18 -11 -33 -1 -16 13 -16 14 5 29 l23 16 -27 0 c-25
1 -28 -2 -28 -34 0 -33 -2 -35 -32 -35 -29 0 -30 1 -15 18 26 28 22 47 -5 28
-25 -18 -63 -22 -53 -6 3 5 -2 21 -11 34 -14 22 -18 23 -30 11 -17 -17 -63
-13 -75 6 -15 25 -10 73 13 109 l23 35 3 -34 c2 -18 -1 -38 -7 -44 -22 -22
-12 -40 19 -34 24 5 37 1 64 -23 28 -25 35 -28 45 -16 9 11 9 15 -1 18 -10 4
-10 8 1 21 12 15 11 17 -8 17 -18 0 -21 -4 -16 -21 7 -21 7 -21 -24 -3 -36 21
-38 29 -11 46 12 8 20 24 20 39 0 23 5 27 41 33 29 5 43 12 46 26 6 23 15 24
46 9 21 -10 21 -9 3 5 -10 8 -22 17 -26 18 -5 2 -10 14 -12 28 -3 22 1 25 25
25 20 -1 27 4 27 18 0 11 -9 21 -21 24 -11 3 -25 16 -30 29 -5 14 -17 24 -29
24 -11 0 -20 5 -20 11 0 7 10 9 25 7 13 -3 22 -2 20 2 -9 14 -55 18 -55 5 0
-7 -8 -15 -19 -18 -12 -3 -23 4 -35 24 -17 29 -40 37 -51 19 -9 -15 -25 -12
-25 5 0 8 7 15 17 15 9 0 14 3 10 6 -3 4 -17 4 -31 0 -18 -4 -23 -11 -19 -26
3 -12 0 -20 -7 -20 -6 0 -10 10 -9 23 4 25 -7 47 -23 47 -6 0 -8 -9 -5 -20 3
-13 0 -20 -9 -20 -8 0 -14 6 -14 14 0 8 -3 17 -7 19 -5 3 -8 -11 -8 -31 0 -42
-21 -53 -61 -31 -30 16 -31 33 -3 26 17 -4 19 -3 10 6 -19 19 -13 40 9 34 15
-4 20 -1 18 11 -2 10 3 16 10 14 8 -1 12 3 10 10 -6 17 -50 11 -65 -9 -11 -14
-15 -13 -34 11 -12 15 -26 25 -33 23 -6 -2 -20 -1 -32 3 -13 6 -28 2 -45 -11z
m-44 -79 c3 -5 1 -10 -4 -10 -6 0 -11 5 -11 10 0 6 2 10 4 10 3 0 8 -4 11 -10z
m84 -31 c34 -12 37 -19 19 -37 -17 -17 -31 -15 -24 4 3 8 2 13 -2 10 -5 -3
-16 4 -25 15 -19 22 -13 24 32 8z m-29 -52 c0 -10 -4 -15 -10 -12 -5 3 -10 18
-10 33 0 21 2 24 10 12 5 -8 10 -23 10 -33z m148 2 c3 -24 1 -25 -30 -21 -18
3 -27 7 -20 9 6 3 12 14 12 25 0 30 34 19 38 -13z m227 21 c-3 -5 -15 -10 -26
-10 -11 0 -17 5 -14 10 3 6 15 10 26 10 11 0 17 -4 14 -10z m-45 -40 c6 -11
20 -20 31 -20 11 0 35 -14 52 -31 30 -30 30 -32 12 -45 -26 -19 -34 -17 -28 6
6 23 -20 49 -49 50 -9 0 -24 7 -32 16 -9 8 -20 12 -26 9 -14 -8 -13 -48 2 -63
15 -15 4 -26 -17 -19 -8 4 -15 15 -15 26 0 14 -5 18 -20 14 -23 -6 -25 -14 -8
-31 21 -21 2 -23 -25 -1 -33 25 -34 35 -4 59 16 13 26 15 35 8 8 -7 12 -7 12
0 0 17 30 42 50 42 11 0 24 -9 30 -20z m155 9 c4 -6 5 -12 3 -14 -7 -7 -48 7
-48 16 0 13 37 11 45 -2z m-735 -14 c0 -8 -7 -15 -15 -15 -16 0 -20 12 -8 23
11 12 23 8 23 -8z m330 -20 c0 -9 -6 -12 -15 -9 -8 4 -15 10 -15 15 0 5 7 9
15 9 8 0 15 -7 15 -15z m397 -27 c-3 -7 -5 -2 -5 12 0 14 2 19 5 13 2 -7 2
-19 0 -25z m43 12 c0 -5 -5 -10 -11 -10 -5 0 -7 5 -4 10 3 6 8 10 11 10 2 0 4
-4 4 -10z m-810 -8 c0 -5 -9 -17 -20 -27 -22 -20 -26 -14 -10 16 11 19 30 26
30 11z m287 -14 c-3 -8 -6 -5 -6 6 -1 11 2 17 5 13 3 -3 4 -12 1 -19z m50 16
c-3 -3 -12 -4 -19 -1 -8 3 -5 6 6 6 11 1 17 -2 13 -5z m-267 -56 c0 -5 -13 -2
-30 7 -16 9 -30 20 -30 26 0 5 14 2 30 -8 17 -9 30 -21 30 -25z m35 32 c3 -5
1 -10 -4 -10 -6 0 -11 5 -11 10 0 6 2 10 4 10 3 0 8 -4 11 -10z m35 -11 c0 -5
-4 -9 -10 -9 -5 0 -10 7 -10 16 0 8 5 12 10 9 6 -3 10 -10 10 -16z m-182 -30
c-2 -6 -8 -10 -13 -10 -5 0 -11 4 -13 10 -2 6 4 11 13 11 9 0 15 -5 13 -11z
m707 1 c3 -5 1 -10 -4 -10 -6 0 -11 5 -11 10 0 6 2 10 4 10 3 0 8 -4 11 -10z
m-532 -27 c18 -10 34 -21 35 -25 2 -5 15 -8 28 -8 13 0 24 -4 24 -10 0 -5 -7
-10 -15 -10 -8 0 -14 -5 -12 -12 1 -6 -6 -14 -15 -16 -11 -2 -18 2 -18 12 0
10 -9 16 -22 17 -13 0 -17 3 -10 6 10 4 6 13 -14 34 -32 33 -26 37 19 12z
m402 -23 c-5 -8 -11 -8 -17 -2 -6 6 -7 16 -3 22 5 8 11 8 17 2 6 -6 7 -16 3
-22z m95 10 c0 -5 -4 -10 -10 -10 -5 0 -10 5 -10 10 0 6 5 10 10 10 6 0 10 -4
10 -10z m-740 -30 c0 -5 -2 -10 -4 -10 -3 0 -8 5 -11 10 -3 6 -1 10 4 10 6 0
11 -4 11 -10z m480 -13 c0 -7 -6 -21 -13 -31 -13 -17 -14 -18 -20 -2 -4 9 -1
23 6 31 15 18 27 19 27 2z m-490 -17 c0 -5 -4 -10 -10 -10 -5 0 -10 5 -10 10
0 6 5 10 10 10 6 0 10 -4 10 -10z m35 0 c3 -5 1 -10 -4 -10 -6 0 -11 5 -11 10
0 6 2 10 4 10 3 0 8 -4 11 -10z m325 -20 c0 -5 -4 -10 -10 -10 -5 0 -10 5 -10
10 0 6 5 10 10 10 6 0 10 -4 10 -10z m-220 -19 c0 -13 -37 -24 -52 -15 -8 5
-6 10 8 15 27 11 44 11 44 0z m265 -1 c-3 -5 -11 -10 -16 -10 -6 0 -7 5 -4 10
3 6 11 10 16 10 6 0 7 -4 4 -10z m-415 -4 c0 -3 -4 -8 -10 -11 -5 -3 -10 -1
-10 4 0 6 5 11 10 11 6 0 10 -2 10 -4z m285 -6 c-27 -12 -35 -12 -35 0 0 6 12
10 28 9 24 0 25 -1 7 -9z m355 -6 c0 -9 -5 -14 -12 -12 -18 6 -21 28 -4 28 9
0 16 -7 16 -16z m40 -48 c-1 -17 -25 -46 -39 -46 -8 0 -10 11 -7 33 2 17 5 33
5 34 4 6 41 -12 41 -21z m-90 -79 c-10 -9 -11 -9 -6 0 4 7 -2 17 -14 23 -11 6
-20 20 -20 31 0 18 3 16 26 -11 22 -25 24 -34 14 -43z m-70 45 c0 -5 -11 -19
-25 -32 -28 -26 -33 -16 -9 18 15 22 34 30 34 14z m260 -21 c0 -13 -28 -22
-35 -11 -3 4 1 11 7 13 20 8 28 8 28 -2z m-410 -16 c0 -9 9 -15 23 -15 l22 0
-25 -20 -25 -20 23 0 c17 0 22 -6 22 -26 0 -22 -3 -24 -14 -15 -11 10 -17 8
-25 -6 -9 -16 -12 -16 -20 -3 -7 10 -7 16 -1 18 18 6 10 20 -15 26 -14 4 -25
11 -25 16 0 6 11 10 25 10 25 0 33 14 15 25 -15 9 -12 25 5 25 8 0 15 -7 15
-15z m292 -32 c-4 -28 -27 -53 -45 -53 -6 0 -3 8 6 18 21 23 22 46 2 38 -8 -3
-15 -2 -15 3 0 13 12 21 35 21 19 0 21 -4 17 -27z m48 17 c0 -5 -4 -10 -10
-10 -5 0 -10 5 -10 10 0 6 5 10 10 10 6 0 10 -4 10 -10z m50 -36 c0 -14 -23
-45 -41 -54 -19 -11 -19 -9 3 24 21 32 38 46 38 30z m-435 -24 c3 -5 1 -10 -4
-10 -6 0 -11 5 -11 10 0 6 2 10 4 10 3 0 8 -4 11 -10z m685 -53 c0 -5 -7 -4
-15 3 -8 7 -15 20 -15 29 1 13 3 13 15 -3 8 -11 15 -24 15 -29z m-560 12 c0
-5 -7 -9 -15 -9 -15 0 -20 12 -9 23 8 8 24 -1 24 -14z m-280 -19 c13 -8 13
-10 -2 -10 -9 0 -20 5 -23 10 -8 13 5 13 25 0z m270 -9 c0 -10 -24 -21 -43
-21 -7 0 -3 7 7 15 22 17 36 19 36 6z m120 -1 c0 -5 -4 -10 -10 -10 -5 0 -10
5 -10 10 0 6 5 10 10 10 6 0 10 -4 10 -10z m228 -19 c8 -5 12 -19 9 -32 l-4
-24 -8 23 c-4 12 -11 22 -16 22 -12 0 -11 -14 1 -26 15 -15 -12 -36 -34 -28
-17 7 -22 34 -6 34 6 0 10 9 10 20 0 21 24 27 48 11z m-204 -27 c21 -8 20 -17
-4 -32 -18 -11 -20 -10 -20 13 0 27 1 28 24 19z m-634 -21 c0 -5 -7 -17 -15
-27 -15 -20 -20 -10 -9 18 6 16 24 22 24 9z m590 -13 c0 -5 -4 -10 -10 -10 -5
0 -10 5 -10 10 0 6 5 10 10 10 6 0 10 -4 10 -10z m275 -11 c4 -6 -1 -17 -11
-24 -28 -21 -34 -18 -21 10 13 27 22 31 32 14z m-185 -19 c0 -11 -48 -25 -56
-17 -4 3 -3 10 1 16 8 14 55 14 55 1z m340 -2 c0 -7 -24 -26 -53 -42 -58 -33
-49 -11 13 30 42 28 40 27 40 12z m-845 -18 c3 -5 -3 -10 -15 -10 -12 0 -18 5
-15 10 3 6 10 10 15 10 5 0 12 -4 15 -10z m268 -25 c8 4 18 2 22 -4 4 -7 -4
-11 -19 -11 -21 0 -26 -5 -26 -25 0 -14 5 -25 10 -25 23 0 8 -19 -20 -25 -36
-8 -41 -41 -8 -54 18 -7 19 -9 4 -14 -9 -4 -21 -18 -26 -32 -10 -25 -30 -35
-30 -14 0 8 -5 8 -15 -1 -21 -17 -20 8 1 38 9 13 14 26 11 29 -3 3 -29 -2 -58
-11 -29 -8 -55 -13 -57 -11 -7 7 53 33 91 40 20 4 37 13 37 20 0 8 9 17 20 20
13 4 20 16 21 33 2 34 2 33 -7 57 -7 19 -7 19 13 2 11 -9 27 -15 36 -12z m-96
9 c-3 -3 -12 -4 -19 -1 -8 3 -5 6 6 6 11 1 17 -2 13 -5z m388 -4 c-28 -12 -37
-12 -30 0 3 6 16 10 28 9 21 0 21 -1 2 -9z m345 0 c0 -5 -2 -10 -4 -10 -3 0
-8 5 -11 10 -3 6 -1 10 4 10 6 0 11 -4 11 -10z m-505 -10 c3 -5 -1 -10 -10
-10 -9 0 -13 5 -10 10 3 6 8 10 10 10 2 0 7 -4 10 -10z m215 0 c0 -5 -4 -10
-10 -10 -5 0 -10 5 -10 10 0 6 5 10 10 10 6 0 10 -4 10 -10z m-72 -12 c13 0
21 -5 19 -12 -4 -11 -12 -11 -91 1 -27 4 -35 8 -25 14 8 5 28 7 44 3 17 -4 40
-7 53 -6z m-205 -12 c3 -8 -5 -27 -19 -43 -17 -20 -24 -23 -24 -12 0 9 7 22
15 29 8 7 15 19 15 26 0 18 6 18 13 0z m317 0 c0 -3 -4 -8 -10 -11 -5 -3 -10
-1 -10 4 0 6 5 11 10 11 6 0 10 -2 10 -4z m-254 -31 c18 -14 17 -14 -16 -10
-19 2 -36 4 -38 4 -2 1 0 6 3 11 9 14 28 12 51 -5z m404 5 c0 -5 -5 -10 -11
-10 -8 0 -8 -4 1 -15 15 -18 4 -37 -19 -30 -9 2 -31 1 -49 -4 -19 -6 -34 -6
-37 0 -6 9 -1 12 50 25 21 5 25 8 13 11 -21 5 -24 19 -5 26 22 9 57 7 57 -3z
m60 -9 c0 -6 -4 -13 -10 -16 -5 -3 -10 1 -10 9 0 9 5 16 10 16 6 0 10 -4 10
-9z m-842 -29 c2 -6 -6 -10 -17 -9 -22 1 -26 8 -14 21 9 9 26 3 31 -12z m56 2
c20 -8 21 -24 2 -24 -8 0 -16 7 -20 15 -6 17 -4 18 18 9z m166 -23 c0 -6 -4
-13 -10 -16 -5 -3 -10 1 -10 9 0 9 5 16 10 16 6 0 10 -4 10 -9z m270 -52 c0
-15 -12 -11 -37 13 -33 31 -28 43 7 18 17 -12 30 -26 30 -31z m100 41 c0 -5
-2 -10 -4 -10 -3 0 -8 5 -11 10 -3 6 -1 10 4 10 6 0 11 -4 11 -10z m-542 -60
c12 0 22 -4 22 -10 0 -21 -49 -9 -69 16 -28 36 -26 56 2 22 13 -16 33 -28 45
-28z m212 40 c0 -5 -4 -10 -10 -10 -5 0 -10 5 -10 10 0 6 5 10 10 10 6 0 10
-4 10 -10z m490 -5 c0 -8 -4 -15 -10 -15 -5 0 -10 7 -10 15 0 8 5 15 10 15 6
0 10 -7 10 -15z m-400 -9 c0 -2 -9 -6 -20 -9 -11 -3 -20 -1 -20 4 0 5 9 9 20
9 11 0 20 -2 20 -4z m470 -16 c0 -5 -7 -10 -15 -10 -8 0 -15 5 -15 10 0 6 7
10 15 10 8 0 15 -4 15 -10z m-595 -11 c11 -17 -1 -21 -15 -4 -8 9 -8 15 -2 15
6 0 14 -5 17 -11z m215 5 c0 -1 -3 -10 -6 -18 -5 -13 -9 -14 -20 -5 -20 16
-17 28 6 26 11 -1 20 -2 20 -3z m-140 -24 c0 -5 -2 -10 -4 -10 -3 0 -8 5 -11
10 -3 6 -1 10 4 10 6 0 11 -4 11 -10z m514 1 c3 -5 -1 -14 -9 -21 -13 -10 -15
-9 -15 9 0 21 14 28 24 12z m-619 -41 c3 -5 1 -10 -4 -10 -6 0 -11 5 -11 10 0
6 2 10 4 10 3 0 8 -4 11 -10z m-55 -40 c0 -14 -28 -1 -34 16 -4 12 -2 12 14 4
11 -6 20 -15 20 -20z m-220 -1 c0 -15 -30 -23 -42 -11 -6 6 -7 15 -4 20 7 12
46 4 46 -9z m330 -9 c0 -5 -7 -10 -16 -10 -8 0 -12 5 -9 10 3 6 10 10 16 10 5
0 9 -4 9 -10z m-270 -15 c0 -8 -7 -15 -16 -15 -14 0 -14 3 -4 15 7 8 14 15 16
15 2 0 4 -7 4 -15z m213 -585 c6 0 4 -7 -5 -16 -18 -18 -38 -11 -38 13 0 10 6
13 16 9 9 -3 21 -6 27 -6z m156 -63 c13 -16 5 -27 -21 -27 -18 0 -25 20 -11
33 10 10 19 8 32 -6z"/>
<path d="M1720 2216 c0 -18 17 -29 30 -21 8 5 7 11 -1 21 -15 18 -29 18 -29 0z"/>
<path d="M2450 2087 c14 -7 27 -23 28 -36 3 -21 1 -23 -27 -19 -22 3 -28 1
-21 -6 5 -5 10 -18 10 -27 0 -21 20 -37 58 -49 25 -7 30 -5 25 6 -3 8 -18 14
-33 14 -41 0 -46 17 -15 50 22 23 25 32 16 48 -10 19 -32 32 -54 32 -7 0 -1
-6 13 -13z"/>
<path d="M2370 2002 c0 -12 29 -24 41 -16 5 3 9 11 9 17 0 8 -4 7 -9 -2 -8
-12 -12 -12 -25 -2 -9 8 -16 9 -16 3z"/>
<path d="M2300 1965 c0 -23 3 -27 10 -15 9 13 11 13 20 0 5 -8 8 -20 5 -27 -6
-17 14 -28 27 -15 8 8 3 20 -16 42 -14 17 -26 28 -26 23 0 -4 -5 -1 -10 7 -7
12 -10 8 -10 -15z"/>
<path d="M2455 1920 c-22 -24 -35 -26 -35 -4 0 20 -16 9 -23 -16 -4 -17 -2
-19 21 -13 21 5 24 3 19 -11 -5 -12 -3 -16 5 -13 7 2 12 10 10 17 -2 7 7 23
19 36 12 13 18 24 12 24 -5 0 -18 -9 -28 -20z"/>
<path d="M2531 1913 c-1 -17 -6 -20 -23 -16 -19 5 -21 3 -10 -8 17 -19 15 -46
-5 -58 -10 -6 -13 -11 -6 -11 21 0 55 58 50 87 -3 21 -4 22 -6 6z"/>
<path d="M110 1202 c-25 -3 -25 -4 -21 -88 2 -57 -1 -89 -9 -99 -10 -13 -9
-15 11 -15 24 0 24 1 21 91 l-3 92 63 -50 c59 -47 63 -52 63 -91 0 -31 4 -42
15 -42 12 0 15 18 15 99 0 95 -1 100 -23 104 -17 3 -20 1 -11 -9 6 -7 9 -25 7
-40 l-3 -27 -50 39 c-34 26 -58 38 -75 36z"/>
<path d="M350 1133 c-45 -18 -54 -83 -14 -110 35 -22 133 -31 145 -12 14 22
10 33 -6 19 -25 -21 -83 -16 -107 8 -12 12 -19 24 -17 27 3 3 32 10 65 16 72
13 83 22 53 43 -23 16 -89 20 -119 9z m89 -17 c13 -15 8 -18 -56 -31 -25 -5
-33 -3 -33 7 0 35 65 53 89 24z"/>
<path d="M546 1103 c9 -21 21 -53 27 -70 13 -42 37 -42 57 -2 20 41 33 41 45
2 7 -25 15 -33 32 -33 13 0 23 6 23 13 0 6 13 38 29 70 23 49 25 57 11 57 -9
0 -17 -7 -17 -15 0 -8 -8 -33 -18 -56 l-19 -41 -27 54 -27 53 -23 -48 c-13
-26 -26 -47 -30 -47 -4 0 -13 23 -20 50 -11 42 -17 50 -36 50 -23 0 -23 0 -7
-37z"/>
<path d="M2557 894 c-4 -4 -7 -17 -7 -28 1 -20 1 -20 15 -2 9 12 28 19 52 20
l38 1 3 -88 c3 -82 1 -89 -18 -94 -41 -11 -18 -18 47 -14 52 2 63 5 45 12 -22
8 -23 13 -20 96 l3 88 38 -1 c24 -1 43 -8 53 -20 14 -18 14 -18 12 6 l-3 25
-126 3 c-69 1 -128 -1 -132 -4z"/>
<path d="M2858 884 c19 -13 22 -24 22 -89 0 -52 -4 -78 -15 -88 -13 -13 -8
-16 40 -19 30 -1 55 0 55 5 0 4 -7 7 -15 7 -16 0 -29 37 -23 67 2 10 13 19 24
21 16 2 31 -10 58 -47 32 -46 40 -51 73 -50 32 0 35 2 18 10 -11 6 -32 28 -47
50 l-28 39 26 25 c20 20 23 29 14 45 -17 32 -44 40 -137 40 -82 0 -86 -1 -65
-16z m149 -20 c24 -37 7 -59 -43 -59 -35 0 -39 3 -42 28 -5 43 4 57 37 57 22
0 35 -8 48 -26z"/>
<path d="M3130 893 c30 -11 40 -37 40 -104 0 -48 -5 -72 -16 -83 -14 -15 -7
-16 74 -16 73 0 92 3 105 18 24 26 21 39 -3 17 -14 -13 -37 -19 -68 -19 l-47
-1 0 45 c0 41 2 45 27 48 18 2 31 -4 42 -20 16 -22 16 -22 16 22 -1 36 -3 41
-11 28 -6 -12 -22 -18 -45 -18 -35 0 -35 1 -32 38 3 35 5 37 41 40 26 2 45 -2
58 -14 18 -16 19 -16 19 4 0 21 -4 22 -107 21 -60 0 -101 -3 -93 -6z"/>
<path d="M3375 893 c30 -8 35 -21 35 -105 0 -63 -3 -79 -17 -87 -13 -8 8 -10
79 -11 86 0 98 2 108 19 16 31 12 32 -22 11 -18 -11 -48 -20 -65 -20 -26 0
-34 5 -39 24 -3 13 -4 35 -2 47 4 34 49 38 79 7 18 -18 21 -19 15 -5 -3 10 -6
28 -6 39 0 17 -3 18 -14 9 -8 -7 -27 -11 -43 -9 -25 3 -28 7 -28 38 0 34 1 35
42 38 33 2 44 -1 57 -20 l16 -22 0 27 0 27 -107 -1 c-60 -1 -99 -4 -88 -6z"/>
<path d="M168 878 c7 -7 12 -41 12 -84 0 -63 -3 -75 -21 -88 -33 -22 -85 7
-72 40 8 22 -3 16 -21 -11 -16 -25 -16 -25 18 -41 40 -19 95 -13 119 14 11 12
16 43 19 100 l3 82 -34 0 c-27 0 -32 -3 -23 -12z"/>
<path d="M1742 865 c7 -8 87 -9 95 -2 3 4 -18 7 -47 7 -29 0 -51 -2 -48 -5z"/>
<path d="M1763 825 c-23 -9 -31 -19 -27 -29 6 -16 42 -32 51 -22 4 3 -1 6 -9
6 -9 0 -21 6 -27 14 -9 11 -6 16 19 24 16 6 30 13 30 16 0 8 1 8 -37 -9z"/>
<path d="M302 813 c-52 -26 -56 -77 -7 -109 25 -16 114 -22 136 -9 18 12 9 26
-10 15 -32 -16 -76 -12 -96 10 -24 26 -14 34 58 49 31 7 57 17 57 22 0 12 -62
39 -87 39 -10 0 -33 -8 -51 -17z m72 -3 c36 -13 32 -27 -10 -34 -19 -4 -42
-10 -50 -13 -23 -9 -16 24 8 41 27 19 21 18 52 6z"/>
<path d="M558 816 c-16 -8 -28 -11 -28 -5 0 5 -8 9 -17 9 -15 0 -18 -10 -18
-65 0 -59 2 -65 20 -65 18 0 20 5 17 35 -5 45 21 87 50 83 12 -2 23 3 25 10 6
16 -16 15 -49 -2z"/>
<path d="M662 819 c-17 -6 -22 -15 -20 -31 2 -18 13 -26 52 -35 56 -14 60 -17
53 -38 -8 -20 -66 -20 -95 1 -21 14 -22 14 -22 -5 0 -19 6 -21 63 -21 69 0
101 15 96 45 -3 13 -21 24 -58 35 -30 8 -56 20 -58 26 -6 18 31 23 70 9 28
-10 34 -10 30 0 -9 24 -69 31 -111 14z"/>
<path d="M875 821 c-36 -15 -57 -46 -50 -74 10 -38 46 -57 109 -57 46 0 57 4
67 21 11 21 10 21 -12 5 -31 -21 -71 -20 -99 2 -31 25 -20 38 36 47 85 12 96
27 39 51 -38 16 -60 17 -90 5z m82 -28 c4 -10 -83 -34 -91 -26 -9 10 7 35 28
43 23 8 58 -1 63 -17z"/>
<path d="M1042 803 c27 -31 59 -104 56 -126 -2 -18 -9 -22 -35 -21 -22 1 -33
-3 -33 -12 0 -20 54 -18 72 4 28 32 97 172 85 172 -7 0 -20 -20 -30 -45 -11
-25 -22 -45 -26 -45 -3 0 -17 20 -31 45 -19 34 -30 45 -49 45 -22 0 -23 -1 -9
-17z"/>
<path d="M893 443 c493 -2 1301 -2 1795 0 493 1 89 2 -898 2 -987 0 -1391 -1
-897 -2z"/>
<path d="M33 359 c13 -8 17 -24 17 -77 0 -40 -5 -73 -12 -80 -9 -9 -2 -12 32
-12 36 1 41 3 28 11 -12 6 -18 22 -18 44 0 30 3 35 23 35 13 0 28 -5 35 -12 9
-9 12 -6 12 15 0 24 -2 26 -19 16 -28 -18 -51 -4 -51 31 0 28 3 30 35 30 22 0
38 -6 44 -17 9 -16 10 -16 11 5 0 21 -4 22 -77 22 -58 -1 -73 -3 -60 -11z"/>
<path d="M381 341 c-58 -55 -31 -138 50 -155 109 -21 186 92 108 158 -45 38
-115 37 -158 -3z m119 9 c30 -16 46 -81 29 -115 -44 -91 -171 -17 -139 80 6
19 16 36 23 39 21 8 68 6 87 -4z"/>
<path d="M750 363 c24 -9 30 -25 30 -83 0 -30 4 -60 8 -67 12 -18 58 -32 89
-27 48 9 65 35 72 113 l7 71 -31 -1 c-16 -1 -22 -3 -12 -6 14 -4 17 -16 17
-68 0 -71 -14 -95 -56 -95 -53 0 -64 15 -64 90 0 45 4 70 13 73 6 3 -10 5 -38
5 -27 0 -43 -2 -35 -5z"/>
<path d="M1153 363 c19 -5 20 -12 17 -98 -1 -33 -7 -63 -12 -66 -6 -4 6 -8 26
-11 20 -2 36 0 36 4 0 4 -7 8 -15 8 -12 0 -15 14 -15 68 l0 67 73 -74 72 -74
7 44 c3 24 7 63 7 86 1 23 6 44 14 46 6 3 -6 6 -28 6 -32 0 -36 -2 -22 -10 13
-8 17 -23 17 -67 l0 -57 -66 68 c-56 56 -72 67 -98 66 -17 -1 -23 -3 -13 -6z"/>
<path d="M1553 359 c14 -8 17 -24 17 -84 0 -49 -4 -75 -12 -78 -7 -3 18 -6 55
-6 77 -1 118 16 136 56 22 48 11 87 -30 108 -33 18 -196 21 -166 4z m150 -29
c48 -56 14 -130 -59 -130 l-34 0 0 80 0 80 34 0 c26 0 41 -7 59 -30z"/>
<path d="M1995 289 c-22 -44 -47 -85 -55 -90 -10 -6 -3 -8 25 -8 22 1 32 3 23
6 -10 2 -18 10 -18 17 0 22 24 36 61 36 29 0 39 -5 44 -20 3 -11 3 -24 0 -30
-4 -6 10 -10 37 -10 30 1 38 3 28 9 -8 5 -33 46 -55 90 -21 45 -42 81 -45 81
-3 0 -24 -36 -45 -81z m53 7 c13 -28 7 -36 -25 -36 -25 0 -29 11 -13 41 14 25
24 24 38 -5z"/>
<path d="M2307 363 c-4 -3 -7 -16 -7 -27 0 -20 0 -20 16 2 8 12 26 22 40 22
23 0 24 -2 24 -80 0 -64 -3 -80 -15 -80 -8 0 -15 -3 -15 -7 0 -5 23 -6 52 -4
39 2 47 6 35 13 -14 7 -17 24 -17 83 l0 75 30 0 c17 0 33 -7 39 -17 9 -16 10
-16 11 5 0 21 -3 22 -93 22 -52 0 -97 -3 -100 -7z"/>
<path d="M2683 359 c14 -8 17 -24 17 -84 0 -49 -4 -75 -12 -78 -7 -3 10 -5 37
-6 40 0 45 2 28 9 -21 8 -23 16 -23 79 0 56 3 72 18 80 13 8 6 10 -33 10 -39
0 -46 -2 -32 -10z"/>
<path d="M2969 341 c-97 -98 62 -217 164 -123 27 26 35 68 21 107 -10 25 -58
45 -109 45 -38 0 -52 -5 -76 -29z m116 13 c43 -17 56 -114 19 -145 -26 -22
-84 -16 -105 10 -24 29 -26 103 -3 125 16 16 59 21 89 10z"/>
<path d="M3353 359 c23 -14 25 -130 1 -153 -14 -15 -12 -16 23 -16 31 1 35 3
21 11 -14 8 -18 23 -18 72 l0 61 73 -72 c40 -39 76 -72 80 -72 4 0 7 35 7 78
0 47 5 83 12 90 9 9 3 12 -27 11 -22 0 -33 -3 -25 -6 8 -3 18 -11 22 -17 11
-15 10 -94 -1 -100 -5 -3 -35 24 -67 59 -47 54 -63 65 -88 65 -26 -1 -28 -2
-13 -11z"/>
<path d="M893 103 c493 -2 1301 -2 1795 0 493 1 89 2 -898 2 -987 0 -1391 -1
-897 -2z"/>
</g>
</svg>
